PathFileType	4	(X/Y/Z)	Patient4_TMGait_0pt3_03_right_29.trc.trc
DataRate	CameraRate	NumFrames	NumMarkers	Units	OrigDataRate	OrigDataStartFrame	OrigNumFrames
53.030303030303	53.030303030303	6	33	mm	53.030303030303	36	       141
Frame#	Time	Sacral			L.Shoulder			Chest			R.Shoulder			Neck			R.ASIS			L.ASIS			R.Thigh.Superior			R.Thigh.Lateral			R.Thigh.Inferior			R.Patella			L.Thigh.Superior			L.Thigh.Lateral			L.Thigh.Inferior			L.Patella			L.Shank.Superior			L.Shank.Lateral			L.Shank.Inferior			R.Shank.Superior			R.Shank.Lateral			R.Shank.Inferior			R.Heel			R.Midfoot.Superior			R.Midfoot.Lateral			R.Toe			L.Heel			L.Midfoot.Lateral			L.Midfoot.Superior			L.Toe			L.Elbow			L.Wrist			R.Elbow			R.Wrist			
		X1	Y1	Z1	X2	Y2	Z2	X3	Y3	Z3	X4	Y4	Z4	X5	Y5	Z5	X6	Y6	Z6	X7	Y7	Z7	X8	Y8	Z8	X9	Y9	Z9	X10	Y10	Z10	X11	Y11	Z11	X12	Y12	Z12	X13	Y13	Z13	X14	Y14	Z14	X15	Y15	Z15	X16	Y16	Z16	X17	Y17	Z17	X18	Y18	Z18	X19	Y19	Z19	X20	Y20	Z20	X21	Y21	Z21	X22	Y22	Z22	X23	Y23	Z23	X24	Y24	Z24	X25	Y25	Z25	X26	Y26	Z26	X27	Y27	Z27	X28	Y28	Z28	X29	Y29	Z29	X30	Y30	Z30	X31	Y31	Z31	X32	Y32	Z32	X33	Y33	Z33	

36	54.770000000000	698.425439815164	997.544003775787	527.234027956245	901.340859888114	1431.449989118477	385.271978529175	972.237590878962	1359.740232556102	560.463020753923	857.943822290287	1427.959769965518	717.955041732128	854.125344979169	1489.998894011260	539.904319587374	915.501881575307	934.504511727228	672.363760761223	931.265152762258	957.930085767323	399.168920170494	983.379410031293	747.441430153571	633.039059012492	916.197130285013	627.288256245112	688.688458163545	1001.403764276199	586.277445675139	608.978213136393	1014.140896049973	495.999078853435	614.910128808945	945.308754170200	727.906100171366	420.997666105389	844.706030250669	624.511851393409	347.024475296496	909.613380560554	533.179955199383	412.918425575890	896.928479173302	456.394562030114	414.020886265856	843.261019620116	396.397151843338	401.646397685136	722.969574885693	323.287001279678	337.112173123871	727.131604984278	197.078246973849	400.658403791259	983.526152565631	404.492234026093	621.437532420118	912.306764815674	301.062826953156	685.693947788819	952.233032821185	206.201750555263	620.890530673370	816.584700434202	42.631085091429	593.357641802323	987.962900318993	97.495436870625	628.002115233382	900.422285749494	36.277046824294	667.320131822506	1108.071140383936	48.201598114099	653.577369604545	554.251015190378	79.639047538903	420.569758667234	632.237319213381	58.977105965201	348.148428465202	723.994034264658	103.097203197365	381.606032856703	838.705566366275	34.992778036493	363.663827742484	1023.013976606828	1117.665618685201	243.059223381348	1279.824343119731	1081.105193372801	269.358419668953	760.846593997541	1084.959240562753	810.033627198979	839.201291368175	837.583485213033	841.788158188754	
37	54.788857142857	698.743667471001	998.529723319591	533.877959021784	899.649707842266	1432.528611857244	389.042541068687	972.959420244987	1360.740305862684	563.273616463419	860.795258119684	1428.891939911521	722.135046423149	854.373482061673	1491.117500661739	544.104648935327	917.531010365843	935.468557009147	676.075375634818	929.704103579877	958.923154444078	402.722652822121	982.731953673801	746.693944363858	636.932600216999	913.827584564878	627.425880455309	692.212698396549	998.231351522100	585.648921063506	612.110957884268	1009.708479522088	495.457433854944	617.548901167034	948.583261244462	730.408859720050	424.005036137247	850.778344265356	625.015808397270	350.174913124090	919.242268765388	534.543894340497	414.807341532074	907.517481100312	456.240269275745	414.696089565487	851.266784619633	396.960616827890	403.017940840944	727.851526064017	328.535884434353	339.433570331627	729.136095458340	201.481294351893	401.349170866386	978.825996318087	404.217333659253	623.686528216419	907.405471684412	300.609520332368	687.364456830977	947.044134427957	206.028400656451	621.876260403019	811.146081398833	42.585345163682	593.490749619562	982.560396031800	97.476033615675	628.293070852917	894.993030179042	36.248558129027	667.412819622397	1102.688900153803	47.961143027588	653.688280910556	552.549841013442	90.852689362622	421.671483211909	629.094507168686	66.679996145456	348.906119552449	722.857551788678	106.470968998470	381.716753296812	833.526190963243	34.234811994649	363.437615996504	1017.029441395337	1115.535827641797	248.812544036815	1272.386458991750	1067.928228477465	275.711531515775	772.316108869306	1084.303910611531	818.587892528979	859.960973837429	840.016345722181	849.995285352004	
38	54.807714285714	698.862906641483	999.501787269702	540.449023950871	897.597280193225	1433.572947173056	392.572326843912	973.504421823813	1361.706266876832	565.731169919276	863.701277120180	1429.816679578685	726.080542814534	854.477116916873	1492.205088002922	548.112693864852	919.402865827001	936.438596679291	679.545615897396	927.859066100993	959.872496604143	406.051754030328	981.753922186102	745.918094298927	640.752419602694	911.056516609628	627.590772781546	695.703006438600	994.685539744019	585.017599742591	615.295654788384	1004.841294236056	494.964539265488	620.314878996922	952.088269578989	733.270380677474	426.899432469225	857.526841608556	625.703621160426	353.067188562919	929.680318831788	536.371918512584	416.528783703067	918.986381974184	456.551481382869	415.176238166153	860.214670397289	397.901751963167	404.232408384374	733.687485041146	334.336967131515	341.919749675297	732.026138111361	206.575954593134	402.270985292348	973.761746291155	404.000309344964	626.045918061412	902.129380354858	300.178674908198	689.034472121721	941.686770593902	205.914045994971	622.963879861106	805.656057589813	42.554784771106	593.616771233933	977.094034791064	97.473520148536	628.640565139403	889.501032799412	36.209004682378	667.515915024607	1097.225537317730	47.762301768602	653.866243752612	551.895864223448	103.114758446220	423.518359984165	626.595015134681	75.588029868963	350.094611929033	722.400782711611	110.705614514578	382.015833238003	828.652464222534	33.775547457800	362.819032634374	1009.981081743669	1113.134843338215	254.451253534532	1263.131502163056	1053.225437426870	281.821598242901	784.475572741485	1083.843903700562	826.975160033684	880.933258067324	842.808537318698	857.585335541625	
39	54.826571428571	698.796749681726	1000.414302558591	546.897969905615	895.211160417726	1434.529690374736	395.855628664833	973.853363460095	1362.599474607825	567.843726797449	866.607249150552	1430.696972342446	729.773307646054	854.436353028690	1493.215773067022	551.908834926964	921.114422478060	937.383415160056	682.761956328645	925.774119286194	960.750734492161	409.152355945958	980.543616255553	745.144966729466	644.418869173253	908.061650731722	627.768179705512	699.081740387418	990.931196523680	584.393481317801	618.427777713333	999.749046624537	494.504369590584	623.093370548541	955.736344140388	736.465327070984	429.663616572769	864.772588524106	626.628233705108	355.704031291303	940.670181398010	538.707863811260	418.105502849426	931.087796803360	457.397571396289	415.509672546186	869.912394134855	399.267763318765	405.302773601176	740.334449309113	340.614566420403	344.607514310706	735.768878827548	212.276092757354	403.448224457863	968.506082944380	403.820848895369	628.416696006508	896.634990552823	299.783240402815	690.648491007967	936.240015962954	205.841377731098	624.088633030612	800.103499348900	42.543694624125	593.733074260149	971.571159404062	97.473432197605	629.007366425113	883.938804076749	36.167405217061	667.620954306240	1091.682540471669	47.584935638315	654.079424748883	552.417612482525	116.058468169935	426.210429732257	624.875878776851	85.516285513061	351.772058017044	722.683820654228	115.784324165485	382.516407043921	824.286924135215	33.766042120938	361.709881764113	1001.894367902832	1110.444778856886	259.966333914142	1251.840378647668	1037.041023830021	287.581817697506	797.182695055830	1083.539667756183	835.024877398586	902.059980007175	845.923354934911	864.509670805685	
40	54.845428571429	698.566428162695	1001.229049469087	553.184827409782	892.524980172305	1435.353482425016	398.888965045655	973.994473446205	1363.390413884095	569.623527500012	869.463748987462	1431.504362123729	733.196965638258	854.257292633530	1494.113783190122	555.473152531156	922.665548403661	938.272953811531	685.719712376126	923.493754542572	961.547529454044	412.031206183683	979.208862164018	744.401536217671	647.855242893064	905.022188593050	627.935325474397	702.265807733215	987.136045551183	583.780963989065	621.394920661624	994.646214004205	494.053595019434	625.752939485260	959.429662318533	739.960370707469	432.292811798217	872.318500033846	627.834516037806	358.108903097377	951.939621453437	541.578146449073	419.576085982040	943.565187823365	458.830075233217	415.760083514227	880.158488674341	401.086010711384	406.254802983066	747.643845467078	347.250524995774	347.514188964869	740.338412703139	218.440096904410	404.881263470626	963.233238616658	403.655652735901	630.688849486998	891.084922197199	299.432813639174	692.146060807147	930.782811533755	205.791455544810	625.179604930824	794.490228455529	42.553351079139	593.838052020406	966.004829103272	97.468132973532	629.360145216024	878.311717946154	36.132239955755	667.719497116585	1086.071424059012	47.418716464897	654.299558063740	554.223826992881	129.230252775442	429.769256689671	624.095914778855	96.164820355182	353.951765025338	723.793940167753	121.601263650176	383.211413701486	820.685296594191	34.349768298160	360.062587953034	992.831448465391	1107.470033724313	265.357856861471	1238.308266816247	1019.461989405190	292.895586949699	810.255965972233	1083.359304198205	842.568726043980	923.281049476727	849.361765691853	870.721180803377	
41	54.864285714286	698.197676166932	1001.914373541877	559.279975708545	889.579174669579	1436.004842482329	401.670254028675	973.925741429557	1364.055567793625	571.085874290538	872.231363098906	1432.217813757714	736.336567918220	853.952644070400	1494.871485859310	558.785189378552	924.056564839742	939.075913196903	688.422613148913	921.058771195870	962.266039265507	414.705211226083	977.858958485571	743.707500008008	650.988738203066	902.111413368770	628.061592638905	705.173896969314	983.462479123470	583.178096446784	624.084110395915	989.740640674714	493.581956532200	628.157779858928	963.066490384577	743.711585699789	434.800394231682	879.969088915200	629.349441117076	360.324071586818	963.221946519401	544.983652739612	420.996242394647	956.170746119189	460.874978696815	416.006339145875	890.759410565190	403.356618424436	407.129704372501	755.480988952722	354.082447689597	350.628015601276	745.723727879510	224.873028230371	406.544550043986	958.110286511530	403.477447197840	632.751599107527	885.638469120565	299.130958730952	693.468646702421	925.388993525321	205.743091254887	626.166407840210	788.826566896229	42.583121124775	593.930628021925	960.409758633218	97.454021985274	629.670472905099	872.632910745517	36.110412115510	667.803935119390	1080.409367586554	47.258424906160	654.504227240911	557.394574207195	142.121411936139	434.112940442294	624.432698874647	107.129713653980	356.589175998920	725.848541734730	127.956520365921	384.076120097657	818.150554931293	35.627780760598	357.907269014195	982.880567904611	1104.230894893419	270.633035945105	1222.352420921968	1000.634363772805	297.682258635551	823.495820945177	1083.277471096961	849.457991441379	944.541573855892	853.162424211652	876.172465214446	
